<?xml version="1.0" encoding="utf-8"?>
<!-- Generator: Adobe Illustrator 17.0.0, SVG Export Plug-In . SVG Version: 6.00 Build 0)  -->
<!DOCTYPE svg PUBLIC "-//W3C//DTD SVG 1.1//EN" "http://www.w3.org/Graphics/SVG/1.1/DTD/svg11.dtd">
<svg version="1.1" id="Layer_1" xmlns="http://www.w3.org/2000/svg" xmlns:xlink="http://www.w3.org/1999/xlink" x="0px" y="0px"
	 width="576px" height="576px" viewBox="0 0 576 576" enable-background="new 0 0 576 576" xml:space="preserve">
<path fill-rule="evenodd" clip-rule="evenodd" d="M131.56,65.512c37.09-2.613,55.521,3.771,88.412,19.698
	c10.026,4.849,10.989,14.676,2.211,21.097c-3.033,2.22-7.038,3.466-11.54,2.857c-6.645-6.785-16.042-13.367-25.004-16.51
	c-0.083-1.573-0.041-3.146-0.123-4.719C170.962,74.788,152.404,69.055,131.56,65.512 M168.064,337.403
	c-6.519,10.03-21.202,54.747-24.109,73.84c-1.14,7.487,1.192,19.034,11.199,17.943l13.541-8.781L168.064,337.403z M70.359,418.346
	c15.735,2.12,30.138,7.841,38.572,16.647c9.878,10.315-0.027,19.518-9.824,9.313C91.182,436.051,77.611,423.992,70.359,418.346z
	 M181.721,525.77c-9.95-8.05-17.277-17.829-24.889-26.605c-12.83-14.788-4.296-19.408,7.049-10.693
	C173.859,496.133,179.396,514.893,181.721,525.77z M198.955,468.474l15.516-12.484c25.197,0.592,49.409-0.298,73.648-1.147
	c-17.567,8.11-49.094,16.018-73.081,24.003L198.955,468.474z M73.623,312.967c10.238,31.739,28.409,72.407,51.799,100.843
	c15.883,19.312,26.375,30.075,52.899,23.145c38.568-10.068,76.953-27.337,111.075-47.762c-3.234,10.362-47.83,43.565-95.717,78.587
	c41.073,33.07,89.714,36.552,138.18,40.721c-49.934,10.913-131.874-1.502-175.294-29.22c-5.363-3.423-8.072-4.847-15.939-5.54
	c-29.794-2.626-53.716-6.772-81.896-17.881c27.545-0.325,51.512-1.739,63.813-6.704C93.928,402.329,73.759,356.483,73.623,312.967z
	 M109.497,162.566c-23.469,25.371-34.208,49.875-41.577,73.175c0.275-17.59,8.268-50.716,30.835-84.058
	C110.411,134.472,120.496,150.667,109.497,162.566z M31.031,111.243c15.58,1.314,29.626,2.793,44.623,7.768
	c7.511,2.491,13.889,4.936,23.112,5.522c2.861,0.182,3.664,1.307,4.947,2.775c6.276,7.177,14.449,5.66,22.523,2.981
	c3.67-1.204,3.096,0.079,1.313,2.498c-2.012,2.734-4.101,5.157-5.992,8.108c2.043,5.317,3.696,11.14,4.925,14.492
	c7.24-1.004,18.163-3.302,25.149-3.195c2.907,0.044,2.46,1.126,0.924,3.214c-5.274,7.17-7.176,12.458-10.636,20.563
	c-4.971,11.658-7.045,14.762-18.959,20.027c-34.423,15.214-69.047,70.008-72.786,110.271c6.435-16.589,23.687-69.452,67.254-92
	c17.578-9.096,18.639,2.354,13.496,14.265c-8.804,20.38-23.944,53.604-23.391,79.72c11.073-36.491,24.722-75.29,45.815-107.335
	c4.61-7.002,8.408-10.511,16.493-14.386c21.316-10.214,31.091-10.847,49.87-28.666c7.113-6.743,9.409-8.836,19.275-4.877
	c9.491,3.817,15.88,1.3,26.444,7.105c-3.213-6.763-6.027-14.15-8.109-21.508c-4.402-15.56-9.49-19.523-26.485-21.538
	c-15.032-1.777-28.972,0.346-41.451-10.471c-27.15-23.548-125.37-16-158.516-5.181C19.358,105.151,15.371,109.929,31.031,111.243z
	 M390.745,468.454c-6.674,11.86-25.812,34.194-36.995,42.097c47.726-6.172,92.351-35.307,112.46-79.642
	c4.952-10.922,8.928-20.497,15.179-31.656c2.805-5.007,4.354-9.602-4.158-4.574c-15.848,9.371-20.689,18.704-29.711,30.871
	C435.782,441.379,411.141,468.477,390.745,468.454z M299.698,187.91c-10.441,1.647-18.687,7.992-24.532,17.157l13.843-0.093
	C291.574,199.921,295.345,193.164,299.698,187.91z M362.787,228.059c-6.98,0.041-13.542,6.312-13.93,12.738
	c1.198-1.367,2.418-2.701,3.667-3.987c2.862,1.138,5.725,1.05,8.587-1.488c-2.081-0.455-3.853-1.097-4.548-2.398
	C358.545,231.158,360.611,229.523,362.787,228.059z M430.233,60.032c-7.897,32.348-38.134,70.754-82.423,78.744
	c-9.544,1.721-20.035,4.211-24.566,11.896c-3.919,0.774-42.636,9.65-60.448,52.728c-15.663-2.364-26.113,3.784-39.2,10.801
	c-10.868,5.828-18.129,9.742-33.899,10.791c-5.79,0.385-10.584,0.736-18.935,4.489c1.138,9.169,5.552,15.611,9.449,20.848
	c4.199,5.642,5.235,7.068,7.441,13.611c1.649,4.894,3.84,9.724,9.749,6.957c2.82-1.32,3.964-1.743,5.711,1.438
	c6.366,11.581,22.487,25.637,36.677,23.944c-12.066-9.582-20.662-21.408-19.889-32.899c2.525,4.49,4.663,9.504,12.13,11.21
	l-0.062-12.663c1.365,0,3.281,0.065,4.646,0.065c3.332,5.401,4.574,4.221,4.681-1.036c0.055-2.702,0.032-5.432,0.072-8.142
	c4.517-2.663,7.701-4.278,10.801-10.665c11.008-2.15,23.246-2.07,33.062-0.248c9.117,5.836,11.547,4.319,17.995,0.538
	c2.994-1.755,6.042-3.432,9.069-5.132c-2.166,2.871-4.377,4.797-6.838,7.278c-4.188,4.225-3.582,7.175,2.668,10.083
	c11.207,5.214,11.281,9.516,8.704,22.285c-2.091,10.369-2.528,11.599-1.957,22.536c1.035,19.826-4.217,31.826-24.917,37.513
	c-3.559-1.076-7.118-2.152-10.677-3.228c0.579,2.98,1.829,6.331,2.409,9.311c-4.304-0.828-9.278-2.028-13.582-2.855l5.5,9.534
	c-5.711-1.656-13.694-3.161-19.404-4.816c1.654,5.147,5.79,8.366,13.136,13.236c-7.408,13.42,38.67,17.808,40.497-5.786
	c10.085-13.18,22.973-20.263,38.209-25.686l0.029-6.119l37.493-1.467c4.566-23.841-22.653-42.583-34.124-56.266
	c25.164,18.036,42.191,28.6,39.464,64.086c2.69-1.614,5.38-3.228,8.069-4.842c-5.586,10.886-5.191,12.595-6.067,24.211
	c-1.885,24.943-14.644,39.299-21.132,46.739c13.038,0.867,35.511-11.15,42.943-21.672c0.848-1.199,2.005-1.94,3.399-2.514
	c13.024-5.353,21.228-14.224,28.411-26.281c1.31,6.396-1.043,15.322-7.607,17.609c-7.824,2.717-10.81,5.202-12.676,13.997
	c-7.159,5.339-14.391,9.486-21.55,14.825c23.353,38.078-36.575,58.442-62.94,68.405c29.066,8.17,63.706,6.903,87-14.298
	c14.672-13.355,26.005-32.332,39.423-44.952c17.57-16.525,29.847-14.314,24.811,11.84c-3.222,16.724-13.323,33.917-21.867,47.658
	c28.611-15.256,79.503-86.11,71.089-118.626l4.633-0.027c3-12.703,2.994-41.478-3.093-50.833l3.085,0.009
	c-4.404-27.382-19.611-46.277-38.59-61.07c19.51-5.495,37.568,8.613,49.043,28.68c-7.703-42.389-26.734-75.81-62.664-99.55
	c-12.982-8.578-26.83-16.094-39.54-24.53c-5.25-3.484-4.524-5.543-2.891-13.434C453.829,100.714,440.523,71.879,430.233,60.032z
	 M397.135,72.463c-40.774-24.128-128.921-31.66-179.793-7.201c6.952,4.593,15.618,9.039,22.571,13.632
	C288.621,63.055,341.144,62.477,397.135,72.463z"/>
</svg>
